<?xml version="1.0" encoding="UTF-8"?>
<svg id="Layer_1" data-name="Layer 1" xmlns="http://www.w3.org/2000/svg" viewBox="0 0 467.91 489.76">
  <defs>
    <style>
      .cls-1 {
        fill: #77a461;
        stroke-width: 0px;
      }
    </style>
  </defs>
  <path class="cls-1" d="M234.64,32.67c0-4.52-.01-9.04,0-13.56.02-5.69,1.42-7.13,7.02-7.01,29.9.63,58.65,6.64,86.2,18.34,25.1,10.66,47.69,25.18,67.61,43.83,30.87,28.9,52.4,63.46,63.89,104.27,5.43,19.28,8.33,38.85,8.55,58.84.02,1.72,0,3.45-.12,5.16-.19,2.81-1.78,4.38-4.57,4.4-10.01.06-20.02.08-30.03,0-3.04-.03-4.23-1.67-4.54-5.5-.46-5.57-.71-11.17-1.41-16.71-4.39-34.34-15.93-65.86-36.83-93.74-18.93-25.25-42.39-45.1-70.73-58.94-19.55-9.55-40.16-15.86-61.99-17.59-5.46-.43-10.95-.57-16.43-.85-5-.25-6.53-1.78-6.57-6.72-.04-4.74,0-9.47,0-14.21h-.03Z"/>
  <path class="cls-1" d="M207.07,362.02c-28.21,0-56.41,0-84.62,0-8.39,0-15.13-3.01-19.21-10.68-3.82-7.18-3.25-14.4.7-21.25,6.78-11.73,13.86-23.29,20.76-34.96,19.65-33.24,39.27-66.5,58.92-99.74,1.59-2.68,3.24-5.33,4.9-7.97,8.83-14.07,28.07-14.53,37.12-.53,6.95,10.74,13.17,21.95,19.68,32.97,14.61,24.72,29.2,49.46,43.82,74.18,6.84,11.57,13.82,23.06,20.57,34.68,5.9,10.16,5.02,19.52-2.22,27.34-4.1,4.42-9.35,5.96-15.15,5.96-28.42.03-56.84.01-85.27,0ZM207.02,344.97c27.55,0,55.1.01,82.65,0,5.68,0,7.39-2.98,4.52-7.86-6.11-10.38-12.27-20.72-18.4-31.09-13.62-23.04-27.22-46.1-40.85-69.14-7.55-12.77-15.1-25.54-22.7-38.28-2.95-4.95-6.87-4.98-9.97-.19-.29.45-.55.93-.82,1.39-9.91,16.75-19.8,33.51-29.72,50.26-16.6,28.03-33.21,56.06-49.8,84.09-.93,1.57-1.85,3.17-2.54,4.85-1.25,3.08.36,5.59,3.7,5.9,1.18.11,2.37.07,3.55.07,26.8,0,53.59,0,80.39,0Z"/>
  <path class="cls-1" d="M44.32,277.92c-12.7,0-25.39,0-38.09,0-4.83,0-5.75-.81-5.43-5.63,1.67-25.02,7.13-49.17,18.26-71.68,5.6-11.32,12.64-21.93,19.07-32.84,1.19-2.02,2.69-2.75,5.09-1.46,17.13,9.17,35.22,15.89,54.01,20.79,4.79,1.25,5.07,1.83,3.78,6.45-5.23,18.87-9.1,38.01-10.79,57.55-.64,7.39-1.21,14.78-1.75,22.18-.26,3.51-1.15,4.55-4.78,4.6-6.78.09-13.56.04-20.33.04-6.35,0-12.7,0-19.04,0h0Z"/>
  <path class="cls-1" d="M44.51,290.59c13.02,0,26.04-.01,39.05,0,4.22,0,4.8.55,5.15,4.78.95,11.78,1.91,23.56,2.75,35.35.1,1.44-.19,3.04-.76,4.36-5.12,11.83-3.05,23.88,7.04,32.43,2.23,1.89,2.47,6.37,3.07,9.76.13.73-2.01,2.31-3.36,2.78-11.95,4.2-24.04,7.99-35.9,12.41-6.42,2.39-12.51,5.68-18.67,8.74-5.47,2.72-6.96,2.33-10.21-2.78-15.75-24.73-25.78-51.63-30.35-80.55-1.14-7.2-1.66-14.51-2.27-21.78-.36-4.33.89-5.49,5.4-5.5,13.02-.02,26.04,0,39.05-.01Z"/>
  <path class="cls-1" d="M372.38,290.6c12.27,0,24.54,0,36.81,0,4.11,0,4.99.81,4.81,4.93-1.14,26.74-7.29,52.32-18.61,76.55-4.22,9.04-9.37,17.64-14.24,26.37-2.47,4.42-3.83,4.78-8.34,2.51-16.74-8.47-34.14-15.21-52.24-20.15-2.51-.68-2.79-2.1-2.14-4.39,2.6-9.08,5.5-18.12,7.43-27.35,1.32-6.35,1.26-13,1.75-19.52.88-11.69,1.75-23.37,2.53-35.06.23-3.44,2.4-3.91,5.11-3.91,11.62,0,23.25,0,34.87,0,.75,0,1.51,0,2.26,0h0Z"/>
  <path class="cls-1" d="M374.27,247c-2.91,0-5.81.03-8.72,0-4.39-.05-5.41-1.16-5.65-5.51-1.28-23.4-7.23-45.39-20.4-65.04-18.01-26.86-42.63-44.63-74.11-52.31-7.87-1.92-16.14-2.31-24.26-3.04-4.98-.44-6.45-1.58-6.48-6.68-.03-5.71-.05-11.41,0-17.12.03-4.67,1.42-6.1,5.96-5.96,46.43,1.44,84.67,19.97,114.33,55.65,20.33,24.45,31.26,52.9,33.94,84.55.25,3,.5,6,.59,9.01.14,4.95-1.3,6.4-6.16,6.43-3.01.02-6.03,0-9.04,0h0Z"/>
  <path class="cls-1" d="M203.32,434.66c0,16.68,0,33.35,0,50.03,0,4.84-1.61,6.06-6.2,4.25-9.01-3.55-16.9-9.03-24.13-15.31-24.94-21.69-41.67-48.92-52.93-79.73-1.53-4.18-.86-5.3,3.46-6.29,24.41-5.6,49.17-8.13,74.18-8.48,4.93-.07,5.63.67,5.64,5.5,0,16.68,0,33.35,0,50.03Z"/>
  <path class="cls-1" d="M215.84,434.71c0-16.58,0-33.16,0-49.74,0-4.94.9-5.9,5.79-5.84,25.02.34,49.78,3.1,74.26,8.35,2.5.53,3.64,1.77,2.72,4.33-12.29,34.33-30.79,64.38-60.41,86.57-5.38,4.03-11.44,7.23-17.42,10.36-3.88,2.03-4.92,1.08-4.92-3.32,0-16.9,0-33.81,0-50.71h-.02Z"/>
  <path class="cls-1" d="M202.72,122.98c0,11.94-.06,23.88.04,35.82.02,2.76-.87,4.49-3.55,5.35-7.16,2.3-12.07,7.22-15.65,13.64-.68,1.22-1.58,2.37-2.01,3.67-1.83,5.64-5.69,6.61-11.19,6.09-15.63-1.49-31.17-3.4-46.48-7-3.47-.82-3.89-1.51-2.57-4.9,9.5-24.52,22.63-46.83,40.91-65.85,10.25-10.66,21.79-19.82,34.74-27.08,3.63-2.04,5.73-.81,5.74,3.46.04,12.26.01,24.53.01,36.79h-.01Z"/>
  <path class="cls-1" d="M165.15,488.89c-4.89-1.2-9.51-2.21-14.06-3.46-39.34-10.88-72.31-32-99.6-62.18-5.78-6.4-5.21-8.45,2.81-12.35,15.32-7.44,31.23-13.31,47.56-18.1,4.14-1.22,4.13-1.02,5.84,2.92,4.87,11.23,9.32,22.71,15.03,33.5,10.61,20.03,24.45,37.69,41.63,52.61.89.77,1.89,1.53,2.5,2.5.5.8.91,2.07.61,2.85-.29.76-1.53,1.16-2.32,1.7Z"/>
  <path class="cls-1" d="M104.86,176.56c-6.35-1.9-12.03-3.22-17.42-5.28-11.53-4.41-22.91-9.2-34.35-13.85-.79-.32-1.55-.75-2.31-1.14-2.21-1.15-2.75-2.47-.71-4.41,9.13-8.65,17.81-17.82,27.39-25.94,19.48-16.53,41.77-28.32,65.85-36.67,6.78-2.35,13.85-3.9,20.82-5.72.9-.23,1.97.16,2.95.27-.4,1.02-.53,2.32-1.25,3.01-4.57,4.4-9.39,8.55-13.9,13-13.39,13.22-23.66,28.7-31.93,45.48-4.41,8.94-7.98,18.3-12.07,27.41-.65,1.44-2.02,2.56-3.07,3.84Z"/>
  <path class="cls-1" d="M254.76,487.6c-.49-.3-1.77-.82-1.72-1.09.17-.86.69-1.75,1.31-2.39,5.57-5.68,11.37-11.15,16.75-17,13.98-15.2,24.42-32.72,32.92-51.44,2.98-6.55,5.78-13.21,8.29-19.95,1.14-3.05,2.84-3.84,5.63-2.92,9.4,3.07,18.86,5.97,28.13,9.4,6.74,2.5,13.23,5.69,19.8,8.64,3.28,1.48,3.68,3.22,1.42,6-13.16,16.14-28.53,29.84-45.75,41.5-19.63,13.29-41.07,22.47-63.92,28.49-.83.22-1.66.44-2.87.75Z"/>
  <path class="cls-1" d="M169.96,201c-2.5,4.26-5.09,8.7-7.7,13.13-11.73,19.91-23.5,39.8-35.16,59.76-1.7,2.91-3.68,4.33-7.21,4.09-4.71-.32-9.46-.08-14.2-.1-2.54-.01-4.12-1.03-3.98-3.86,1.12-22.37,3.52-44.57,9.12-66.32,1.04-4.06,2.29-8.06,3.45-12.08.71-2.46,2.31-3.48,4.87-3.05,16.83,2.81,33.66,5.59,50.79,8.44Z"/>
  <path class="cls-1" d="M312.3,246.98q-8.43,0-9.12-8.37c-2.59-31.42-30.8-58.07-62.19-58.76-4.71-.1-5.66-1.04-5.72-5.69-.03-2.58-.04-5.17-.01-7.75.05-4.17,1.53-5.51,5.76-5.42,14.06.29,27.2,3.88,39.34,11,23.03,13.5,36.17,33.75,40.55,59.87.53,3.17.72,6.41.85,9.63.16,4.13-1.16,5.41-5.26,5.49-1.4.03-2.8,0-4.2,0Z"/>
  <path class="cls-1" d="M315.13,319.83c-5.8-9.53-11.6-19.07-17.7-29.08,5.98,0,11.4-.1,16.8.05,2.01.06,2.95,1.57,2.86,3.59-.35,8.42-.72,16.84-1.08,25.26-.3.06-.59.12-.89.18Z"/>
  <path class="cls-1" d="M117.12,290.67c-4.8,7.98-9.37,15.55-13.93,23.13-.3-.06-.6-.12-.9-.17-.21-6.7-.56-13.4-.46-20.1.01-.97,2.11-2.61,3.35-2.73,3.79-.36,7.64-.13,11.93-.13Z"/>
  <path class="cls-1" d="M279.85,371.27h25.14c-.83,4.38-1.72,5.02-5.67,4.21-6.51-1.34-13.02-2.67-19.53-4l.06-.21Z"/>
  <path class="cls-1" d="M112.95,371.35h24.33c-7.31,1.47-14.12,2.9-20.97,4.18-3.38.63-2.54-2.16-3.36-4.18Z"/>
  <path class="cls-1" d="M207.47,233.88c9.84,0,11.23,1.42,10.59,11.31-1.11,16.93-2.22,33.86-3.49,50.78-.35,4.72-2.77,6.59-7.41,6.56-4.46-.03-6.92-2.23-7.29-6.86-.51-6.32-.86-12.64-1.26-18.97-.69-10.94-1.4-21.87-2.03-32.81-.48-8.41,1.1-9.99,9.6-10,.43,0,.86,0,1.29,0Z"/>
  <path class="cls-1" d="M217.19,321c-.2,6.06-4.34,9.81-10.53,9.53-5.81-.26-9.73-4.53-9.5-10.37.21-5.45,4.59-9.33,10.35-9.18,6.1.16,9.87,4.06,9.67,10.02Z"/>
</svg>